<?xml version="1.0" encoding="UTF-8" standalone="no"?>
<!-- Created with Inkscape (http://www.inkscape.org/) -->

<svg
   xmlns:dc="http://purl.org/dc/elements/1.1/"
   xmlns:cc="http://creativecommons.org/ns#"
   xmlns:rdf="http://www.w3.org/1999/02/22-rdf-syntax-ns#"
   xmlns:svg="http://www.w3.org/2000/svg"
   xmlns="http://www.w3.org/2000/svg"
   xmlns:sodipodi="http://sodipodi.sourceforge.net/DTD/sodipodi-0.dtd"
   xmlns:inkscape="http://www.inkscape.org/namespaces/inkscape"
   id="svg8"
   version="1.1"
   viewBox="0 0 210 297"
   height="297mm"
   width="210mm"
   inkscape:version="0.92.4 (5da689c313, 2019-01-14)"
   sodipodi:docname="drawing inkscape.svg">
  <defs
     id="defs2" />
  <sodipodi:namedview
     id="base"
     pagecolor="#ffffff"
     bordercolor="#666666"
     borderopacity="1.0"
     inkscape:pageopacity="0.0"
     inkscape:pageshadow="2"
     inkscape:zoom="0.35"
     inkscape:cx="648.10194"
     inkscape:cy="615.13918"
     inkscape:document-units="mm"
     inkscape:current-layer="layer1"
     showgrid="false"
     inkscape:window-width="1920"
     inkscape:window-height="1017"
     inkscape:window-x="-8"
     inkscape:window-y="-8"
     inkscape:window-maximized="1" />
  <metadata
     id="metadata5">
    <rdf:RDF>
      <cc:Work
         rdf:about="">
        <dc:format>image/svg+xml</dc:format>
        <dc:type
           rdf:resource="http://purl.org/dc/dcmitype/StillImage" />
        <dc:title></dc:title>
      </cc:Work>
    </rdf:RDF>
  </metadata>
  <g
     inkscape:label="Layer 1"
     inkscape:groupmode="layer"
     id="layer1">
    <g
       id="g1933"
       transform="translate(0,47.039437)">
      <path
         d="m 48,178 h 16.738333 v -3 h 15.19 v 3 h 16.643334 v -3 h 15.190003 v 3 H 128.405 v -3 h 15.19 v 3 h 16.64333 v -3 h 15.19 v 3 h 16.64334 v -3 h 15.19 v 3 H 224"
         style="fill:none;stroke:#000000;stroke-width:1"
         inkscape:label="part"
         id="path1647"
         inkscape:connector-curvature="0" />
      <path
         d="m 224,178 v 12.595 h -3 v 14.81 h 3 V 218"
         style="fill:none;stroke:#000000;stroke-width:1"
         inkscape:label="part"
         id="path1649"
         inkscape:connector-curvature="0" />
      <path
         d="m 224,218 h -16.73833 v 3 h -15.19 v -3 h -16.64334 v 3 h -15.19 v -3 H 143.595 v 3 h -15.19 v -3 h -16.64333 v 3 H 96.571667 v -3 H 79.928333 v 3 h -15.19 v -3 H 48"
         style="fill:none;stroke:#000000;stroke-width:1"
         inkscape:label="part"
         id="path1651"
         inkscape:connector-curvature="0" />
      <path
         d="m 48,218 v -12.595 h 3 v -14.81 H 48 V 178"
         style="fill:none;stroke:#000000;stroke-width:1"
         inkscape:label="part"
         id="path1653"
         inkscape:connector-curvature="0" />
    </g>
    <g
       id="g1939"
       transform="translate(-196.71037,109.04597)">
      <g
         id="g2027"
         transform="translate(136.07143,30.238095)">
        <path
           inkscape:connector-curvature="0"
           id="path1655"
           inkscape:label="part"
           style="fill:none;stroke:#000000;stroke-width:1"
           d="m 4,51 h 12.405 v -3 h 15.19 v 3 H 44" />
        <path
           inkscape:connector-curvature="0"
           id="path1657"
           inkscape:label="part"
           style="fill:none;stroke:#000000;stroke-width:1"
           d="m 44,51 v 17.155 h 3 v 15.19 h -3 v 20.06 h 3 v 15.19 h -3 v 20.06 h 3 v 15.19 H 44 V 171" />
        <path
           inkscape:connector-curvature="0"
           id="path1659"
           inkscape:label="part"
           style="fill:none;stroke:#000000;stroke-width:1"
           d="M 44,171 H 31.595 v 3 h -15.19 v -3 H 4" />
        <path
           inkscape:connector-curvature="0"
           id="path1661"
           inkscape:label="part"
           style="fill:none;stroke:#000000;stroke-width:1"
           d="M 4,171 V 153.845 H 1 v -15.19 h 3 v -20.06 H 1 v -15.19 H 4 V 83.345 H 1 V 68.155 H 4 V 51" />
      </g>
    </g>
    <g
       id="g1957"
       transform="translate(36.05949,2.3723155)">
      <path
         d="m 48,48 h 16.928333 v 3 h 14.81 v -3 h 17.023334 v 3 H 111.57167 V 48 H 128.595 v 3 h 14.81 v -3 h 17.02333 v 3 h 14.81 v -3 h 17.02334 v 3 h 14.81 V 48 H 224"
         style="fill:none;stroke:#000000;stroke-width:1"
         inkscape:label="part"
         id="path1663"
         inkscape:connector-curvature="0" />
      <path
         d="m 224,48 v 20.345 h -3 v 14.81 h 3 v 20.44 h -3 v 14.81 h 3 v 20.44 h -3 v 14.81 h 3 V 174"
         style="fill:none;stroke:#000000;stroke-width:1"
         inkscape:label="part"
         id="path1665"
         inkscape:connector-curvature="0" />
      <path
         d="m 224,174 h -16.92833 v -3 h -14.81 v 3 c -4.60784,2.66652 -7.12301,10.5647 -17.02334,0 v -3 h -14.81 v 3 H 143.405 v -3 h -14.81 v 3 h -17.02333 v -3 H 96.761667 v 3 c -1.655868,3.18919 -4.612733,4.61354 -7.131263,5.21474 -2.737678,0.65351 -5.151564,0.14024 -9.892071,-5.21474 v -3 h -14.81 v 3 H 48"
         style="fill:none;stroke:#000000;stroke-width:1"
         inkscape:label="part"
         id="path1667"
         inkscape:connector-curvature="0"
         sodipodi:nodetypes="cccccccccccccccccsccccc" />
      <path
         d="m 48,174 v -20.345 h 3 v -14.81 h -3 v -20.44 h 3 v -14.81 h -3 v -20.44 h 3 V 68.345 H 48 V 48"
         style="fill:none;stroke:#000000;stroke-width:1"
         inkscape:label="part"
         id="path1669"
         inkscape:connector-curvature="0" />
    </g>
    <g
       id="g1951"
       transform="translate(-284.50066,-2.2087371)">
      <path
         d="m 228,51 h 12.405 v -3 h 15.19 v 3 H 268"
         style="fill:none;stroke:#000000;stroke-width:1"
         inkscape:label="part"
         id="path1671"
         inkscape:connector-curvature="0" />
      <path
         d="m 268,51 v 17.155 h 3 v 15.19 h -3 v 20.06 h 3 v 15.19 h -3 v 20.06 h 3 v 15.19 h -3 V 171"
         style="fill:none;stroke:#000000;stroke-width:1"
         inkscape:label="part"
         id="path1673"
         inkscape:connector-curvature="0" />
      <path
         d="m 268,171 h -12.405 v 3 h -15.19 v -3 H 228"
         style="fill:none;stroke:#000000;stroke-width:1"
         inkscape:label="part"
         id="path1675"
         inkscape:connector-curvature="0" />
      <path
         d="m 228,171 v -17.155 h -3 v -15.19 h 3 v -20.06 h -3 v -15.19 h 3 v -20.06 h -3 v -15.19 h 3 V 51"
         style="fill:none;stroke:#000000;stroke-width:1"
         inkscape:label="part"
         id="path1677"
         inkscape:connector-curvature="0" />
    </g>
    <g
       id="g1963">
      <path
         d="M 272.0,48.0 L 288.928333335,48.0 L 288.928333335,51.0 L 303.738333332,51.0 L 303.738333332,48.0 L 320.761666668,48.0 L 320.761666668,51.0 L 335.571666665,51.0 L 335.571666665,48.0 L 352.595000002,48.0 L 352.595000002,51.0 L 367.404999998,51.0 L 367.404999998,48.0 L 384.428333335,48.0 L 384.428333335,51.0 L 399.238333332,51.0 L 399.238333332,48.0 L 416.261666668,48.0 L 416.261666668,51.0 L 431.071666665,51.0 L 431.071666665,48.0 L 448.0,48.0 "
         style="stroke:#000000;stroke-width:1;fill:none"
         inkscape:label="part"
         id="path1679" />
      <path
         d="M 448.0,48.0 L 448.0,68.3450000016 L 445.0,68.3450000016 L 445.0,83.1549999984 L 448.0,83.1549999984 L 448.0,103.595000002 L 445.0,103.595000002 L 445.0,118.404999998 L 448.0,118.404999998 L 448.0,138.845000002 L 445.0,138.845000002 L 445.0,153.654999998 L 448.0,153.654999998 L 448.0,174.0 "
         style="stroke:#000000;stroke-width:1;fill:none"
         inkscape:label="part"
         id="path1681" />
      <path
         d="M 448.0,174.0 L 431.071666665,174.0 L 431.071666665,171.0 L 416.261666668,171.0 L 416.261666668,174.0 L 399.238333332,174.0 L 399.238333332,171.0 L 384.428333335,171.0 L 384.428333335,174.0 L 367.404999998,174.0 L 367.404999998,171.0 L 352.595000002,171.0 L 352.595000002,174.0 L 335.571666665,174.0 L 335.571666665,171.0 L 320.761666668,171.0 L 320.761666668,174.0 L 303.738333332,174.0 L 303.738333332,171.0 L 288.928333335,171.0 L 288.928333335,174.0 L 272.0,174.0 "
         style="stroke:#000000;stroke-width:1;fill:none"
         inkscape:label="part"
         id="path1683" />
      <path
         d="M 272.0,174.0 L 272.0,153.654999998 L 275.0,153.654999998 L 275.0,138.845000002 L 272.0,138.845000002 L 272.0,118.404999998 L 275.0,118.404999998 L 275.0,103.595000002 L 272.0,103.595000002 L 272.0,83.1549999984 L 275.0,83.1549999984 L 275.0,68.3450000016 L 272.0,68.3450000016 L 272.0,48.0 "
         style="stroke:#000000;stroke-width:1;fill:none"
         inkscape:label="part"
         id="path1685" />
    </g>
    <g
       id="g1945"
       transform="translate(0,284.37478)">
      <path
         d="M 48,4 H 64.738333 V 1 h 15.19 V 4 H 96.571667 V 1 H 111.76167 V 4 H 128.405 V 1 h 15.19 v 3 h 16.64333 V 1 h 15.19 v 3 h 16.64334 V 1 h 15.19 V 4 H 224"
         style="fill:none;stroke:#000000;stroke-width:1"
         inkscape:label="part"
         id="path1687"
         inkscape:connector-curvature="0" />
      <path
         d="m 224,4 v 12.595 h -3 v 14.81 h 3 V 44"
         style="fill:none;stroke:#000000;stroke-width:1"
         inkscape:label="part"
         id="path1689"
         inkscape:connector-curvature="0" />
      <path
         d="m 224,44 h -16.73833 v 3 h -15.19 v -3 h -16.64334 v 3 h -15.19 V 44 H 143.595 v 3 h -15.19 v -3 h -16.64333 v 3 H 96.571667 V 44 H 79.928333 v 3 h -15.19 V 44 H 48"
         style="fill:none;stroke:#000000;stroke-width:1"
         inkscape:label="part"
         id="path1691"
         inkscape:connector-curvature="0" />
      <path
         d="M 48,44 V 31.405 h 3 V 16.595 H 48 V 4"
         style="fill:none;stroke:#000000;stroke-width:1"
         inkscape:label="part"
         id="path1693"
         inkscape:connector-curvature="0" />
    </g>
    <text
       xml:space="preserve"
       style="font-style:normal;font-weight:normal;font-size:10.58333302px;line-height:1.25;font-family:sans-serif;letter-spacing:0px;word-spacing:0px;fill:#000000;fill-opacity:1;stroke:none;stroke-width:0.26458332"
       x="302.5491"
       y="81.58075"
       id="text1967"><tspan
         sodipodi:role="line"
         id="tspan1965"
         x="302.5491"
         y="91.236244"
         style="stroke-width:0.26458332" /></text>
    <g
       aria-label="Hlynur Smári"
       transform="matrix(0.59925058,0,0,1.668751,36.285714,-1.5119048)"
       style="font-style:normal;font-weight:normal;font-size:27.07837105px;line-height:1.25;font-family:sans-serif;letter-spacing:0px;word-spacing:0px;fill:#000000;fill-opacity:1;stroke:none;stroke-width:0.26458332"
       id="text1971">
      <path
         d="m 157.72238,75.466759 h -2.61793 v -9.638737 h -9.82384 v 9.638737 h -2.61793 V 55.779408 h 2.61793 v 7.721567 h 9.82384 v -7.721567 h 2.61793 z"
         style="stroke-width:0.26458332"
         id="path1973"
         inkscape:connector-curvature="0" />
      <path
         d="m 165.33817,75.466759 h -2.48571 V 54.893543 h 2.48571 z"
         style="stroke-width:0.26458332"
         id="path1975"
         inkscape:connector-curvature="0" />
      <path
         d="m 183.05547,60.69794 -8.62066,20.216225 h -2.65759 l 2.75015,-6.161387 -5.88373,-14.054838 h 2.69726 l 4.5351,10.947701 4.57476,-10.947701 z"
         style="stroke-width:0.26458332"
         id="path1977"
         inkscape:connector-curvature="0" />
      <path
         d="m 198.65726,75.466759 h -2.48571 v -8.409104 q 0,-1.018083 -0.11899,-1.903948 -0.119,-0.899086 -0.43633,-1.401517 -0.33054,-0.555318 -0.95197,-0.819755 -0.62143,-0.277659 -1.61307,-0.277659 -1.01808,0 -2.12872,0.50243 -1.11063,0.502431 -2.12872,1.282521 v 11.027032 h -2.48571 V 60.69794 h 2.48571 v 1.639511 q 1.16353,-0.965196 2.40638,-1.507292 1.24286,-0.542097 2.55182,-0.542097 2.39316,0 3.64924,1.441183 1.25607,1.441183 1.25607,4.151665 z"
         style="stroke-width:0.26458332"
         id="path1979"
         inkscape:connector-curvature="0" />
      <path
         d="m 215.68702,75.466759 h -2.48571 v -1.639511 q -1.25608,0.99164 -2.40638,1.520514 -1.1503,0.528874 -2.5386,0.528874 -2.32704,0 -3.62279,-1.414739 -1.29574,-1.427961 -1.29574,-4.178108 V 60.69794 h 2.48571 v 8.409104 q 0,1.123858 0.10578,1.930391 0.10577,0.793312 0.44954,1.361852 0.35699,0.581762 0.92553,0.846199 0.56854,0.264437 1.65273,0.264437 0.9652,0 2.10228,-0.50243 1.1503,-0.502431 2.14194,-1.282521 V 60.69794 h 2.48571 z"
         style="stroke-width:0.26458332"
         id="path1981"
         inkscape:connector-curvature="0" />
      <path
         d="m 229.79475,63.408422 h -0.13222 q -0.55532,-0.132219 -1.0842,-0.185106 -0.51565,-0.06611 -1.22963,-0.06611 -1.1503,0 -2.22127,0.515653 -1.07097,0.502431 -2.06261,1.308964 v 10.484936 h -2.48571 V 60.69794 h 2.48571 v 2.181607 q 1.48085,-1.189967 2.6047,-1.679176 1.13708,-0.502431 2.31383,-0.502431 0.64787,0 0.93875,0.03967 0.29088,0.02644 0.87265,0.118996 z"
         style="stroke-width:0.26458332"
         id="path1983"
         inkscape:connector-curvature="0" />
      <path
         d="m 256.18558,69.847468 q 0,1.150302 -0.5421,2.27416 -0.52887,1.123858 -1.49407,1.903948 -1.05775,0.846199 -2.47249,1.322186 -1.40151,0.475987 -3.38479,0.475987 -2.12872,0 -3.83434,-0.396656 -1.6924,-0.396656 -3.45091,-1.176745 v -3.279022 h 0.18511 q 1.49407,1.242855 3.4509,1.91717 1.95684,0.674315 3.67568,0.674315 2.43282,0 3.78145,-0.912309 1.36186,-0.912308 1.36186,-2.432822 0,-1.308964 -0.64788,-1.930392 -0.63465,-0.621427 -1.94361,-0.965196 -0.99164,-0.264437 -2.15516,-0.436321 -1.1503,-0.171884 -2.44605,-0.436321 -2.61793,-0.555319 -3.88722,-1.890726 -1.25608,-1.34863 -1.25608,-3.503794 0,-2.472488 2.08905,-4.045889 2.08906,-1.586623 5.30197,-1.586623 2.07583,0 3.8079,0.396655 1.73206,0.396656 3.06747,0.978418 v 3.093916 h -0.18511 q -1.12386,-0.951974 -2.9617,-1.573402 -1.82461,-0.634649 -3.74178,-0.634649 -2.10228,0 -3.3848,0.872643 -1.2693,0.872643 -1.2693,2.247716 0,1.229633 0.63465,1.930392 0.63465,0.700758 2.2345,1.07097 0.8462,0.185106 2.40638,0.449544 1.56017,0.264437 2.64437,0.542096 2.19483,0.581762 3.30546,1.758508 1.11064,1.176745 1.11064,3.292243 z"
         style="stroke-width:0.26458332"
         id="path1985"
         inkscape:connector-curvature="0" />
      <path
         d="m 281.74344,75.466759 h -2.48571 v -8.409104 q 0,-0.951974 -0.0926,-1.837838 -0.0793,-0.885865 -0.35699,-1.41474 -0.3041,-0.56854 -0.87264,-0.859421 -0.56854,-0.29088 -1.63951,-0.29088 -1.04453,0 -2.08906,0.528874 -1.04452,0.515653 -2.08905,1.322186 0.0397,0.304103 0.0661,0.713981 0.0264,0.396655 0.0264,0.793311 v 9.453631 h -2.48571 v -8.409104 q 0,-0.978417 -0.0926,-1.85106 -0.0793,-0.885865 -0.35699,-1.414739 -0.3041,-0.56854 -0.87264,-0.8462 -0.56854,-0.29088 -1.63951,-0.29088 -1.01809,0 -2.04939,0.50243 -1.01808,0.502431 -2.03617,1.282521 V 75.466759 H 260.1918 V 60.69794 h 2.48571 v 1.639511 q 1.16353,-0.965196 2.31383,-1.507292 1.16352,-0.542097 2.47249,-0.542097 1.50729,0 2.55181,0.63465 1.05775,0.634649 1.57341,1.758507 1.50729,-1.269298 2.75014,-1.824617 1.24286,-0.56854 2.6576,-0.56854 2.43282,0 3.58312,1.480849 1.16353,1.467626 1.16353,4.111999 z"
         style="stroke-width:0.26458332"
         id="path1987"
         inkscape:connector-curvature="0" />
      <path
         d="m 298.00633,75.466759 h -2.47249 v -1.573402 q -0.33055,0.224772 -0.89909,0.63465 -0.55531,0.396655 -1.08419,0.634649 -0.62143,0.304103 -1.42796,0.502431 -0.80653,0.211549 -1.89072,0.211549 -1.99651,0 -3.3848,-1.322186 -1.3883,-1.322186 -1.3883,-3.371574 0,-1.679177 0.71398,-2.710482 0.72721,-1.044527 2.06261,-1.63951 1.34863,-0.594984 3.23936,-0.806534 1.89073,-0.21155 4.05911,-0.317325 v -0.383434 q 0,-0.846199 -0.3041,-1.401517 -0.29088,-0.555318 -0.8462,-0.872643 -0.52888,-0.304102 -1.2693,-0.409877 -0.74042,-0.105775 -1.54696,-0.105775 -0.97841,0 -2.1816,0.264437 -1.20319,0.251215 -2.48571,0.740424 h -0.13222 v -2.525375 q 0.7272,-0.198328 2.10227,-0.436322 1.37508,-0.237993 2.71048,-0.237993 1.56018,0 2.71049,0.264437 1.16352,0.251215 2.00972,0.872643 0.83298,0.608206 1.2693,1.573401 0.43632,0.965196 0.43632,2.393157 z m -2.47249,-3.636012 v -4.111999 q -1.13708,0.06611 -2.68404,0.198328 -1.53373,0.132219 -2.43282,0.383434 -1.07097,0.304103 -1.73206,0.951974 -0.6611,0.634649 -0.6611,1.758508 0,1.269298 0.76687,1.917169 0.76687,0.63465 2.34027,0.63465 1.30897,0 2.39316,-0.502431 1.08419,-0.515653 2.00972,-1.229633 z m 0.89909,-18.523827 -3.60957,4.944976 h -1.97006 l 2.36672,-4.944976 z"
         style="stroke-width:0.26458332"
         id="path1989"
         inkscape:connector-curvature="0" />
      <path
         d="m 312.03473,63.408422 h -0.13222 q -0.55532,-0.132219 -1.08419,-0.185106 -0.51566,-0.06611 -1.22964,-0.06611 -1.1503,0 -2.22127,0.515653 -1.07097,0.502431 -2.06261,1.308964 v 10.484936 h -2.48571 V 60.69794 h 2.48571 v 2.181607 q 1.48085,-1.189967 2.60471,-1.679176 1.13708,-0.502431 2.31382,-0.502431 0.64787,0 0.93876,0.03967 0.29088,0.02644 0.87264,0.118996 z"
         style="stroke-width:0.26458332"
         id="path1991"
         inkscape:connector-curvature="0" />
      <path
         d="m 317.07224,58.225452 h -2.80303 v -2.578263 h 2.80303 z m -0.15866,17.241307 h -2.48571 V 60.69794 h 2.48571 z"
         style="stroke-width:0.26458332"
         id="path1993"
         inkscape:connector-curvature="0" />
    </g>
    <g
       id="g2011"
       transform="translate(-17.260725,-145.84995)">
      <path
         style="fill:#323232;stroke-width:1"
         d="m 368.34372,298.70708 c 10e-4,-0.12692 0.17318,-0.72922 0.38165,-1.33844 0.29822,-0.87148 0.39425,-1.83597 0.45032,-4.52302 0.0392,-1.87843 0.003,-3.51244 -0.0805,-3.63113 -0.0835,-0.11869 -0.719,-0.50234 -1.41227,-0.85256 l -1.26049,-0.63677 -4.34226,-0.1236 c -8.5404,-0.2431 -18.63672,-1.07336 -22.82437,-1.87693 -2.6502,-0.50856 -7.63152,-1.97906 -10.44871,-3.0845 -2.42409,-0.95119 -6.57049,-2.97715 -8.43814,-4.12292 -1.54942,-0.95055 -1.67934,-0.99446 -2.94234,-0.99446 -1.60574,0 -3.02879,0.36712 -4.7233,1.21851 -1.76236,0.88548 -2.95409,1.89311 -4.4662,3.77626 -1.11246,1.38542 -2.00362,2.20514 -2.39734,2.20514 -0.29541,0 -0.058,-0.70738 0.26324,-0.78415 0.20423,-0.0488 0.8177,-0.66081 1.36327,-1.35998 2.41855,-3.09948 5.03221,-4.77911 8.4782,-5.44842 2.68928,-0.52234 2.91498,-0.6125 2.91498,-1.16441 0,-0.46932 -0.42029,-1.12095 -1.55675,-2.41362 -0.35635,-0.40533 -1.14748,-1.62457 -1.75807,-2.70944 -1.45615,-2.58722 -1.73088,-3.94618 -1.87783,-9.28891 -0.12648,-4.59862 0.0404,-6.19852 0.95391,-9.14652 0.63802,-2.05894 1.82469,-4.87431 2.19852,-5.21603 0.12239,-0.11188 0.22253,-0.31325 0.22253,-0.4475 0,-0.45187 1.76875,-4.36781 3.23353,-7.15889 1.86132,-3.54668 3.67452,-6.34877 4.91857,-7.60108 1.08528,-1.09249 2.94763,-2.13395 4.41417,-2.4685 0.52428,-0.1196 1.04176,-0.31497 1.14997,-0.43415 0.10821,-0.11918 0.4384,-0.83686 0.73376,-1.59485 0.71486,-1.83457 2.6661,-5.47644 3.85412,-7.19347 3.02359,-4.36996 7.06994,-7.96512 11.08447,-9.84849 3.39224,-1.59142 5.69142,-2.02944 9.99476,-1.90409 2.91324,0.0849 3.29165,0.13855 5.45308,0.77382 2.70643,0.79545 5.68241,2.10201 8.00887,3.51619 0.90582,0.55061 1.79483,1.00112 1.97559,1.00112 0.18075,0 0.92641,-0.30026 1.65702,-0.66724 2.14802,-1.07894 5.45012,-2.25624 8.0502,-2.87014 2.1007,-0.49599 2.75993,-0.57096 4.94816,-0.56271 2.45481,0.009 2.9204,0.0662 5.25111,0.64277 2.59083,0.64087 5.83674,3.40458 7.358,6.26492 0.50178,0.94348 1.10428,2.42156 1.33888,3.28462 0.2346,0.86307 0.51039,1.66171 0.61285,1.77475 0.10247,0.11304 0.93529,0.43615 1.85071,0.71802 2.72192,0.83811 4.3068,1.65766 6.69148,3.46021 0.32111,0.24273 0.68465,0.72074 0.80787,1.06225 0.16302,0.45184 0.48173,0.75012 1.17033,1.09531 1.53037,0.76715 2.1194,1.3901 2.24012,2.36911 0.0921,0.74724 0.23397,0.95524 1.13548,1.6652 1.10198,0.86784 1.15418,1.00307 0.80201,2.07752 l -1.79148,6.12608 1.13509,-5.86308 c -0.66619,-0.6739 -2.6731,-1.32786 -5.40405,-1.76094 -4.26096,-0.67571 -11.77689,-0.30552 -17.35954,0.85502 -3.0652,0.63721 -6.95916,1.60155 -7.50081,1.85758 -0.58233,0.27527 -0.62728,0.24179 -0.56945,-0.42416 0.0481,-0.55441 -0.50726,-1.4786 -1.05264,-1.75159 -0.3114,-0.15587 -1.6794,-0.22947 -4.39066,-0.23624 -4.65902,-0.0116 -6.10691,0.20874 -15.75334,2.39756 -4.63864,1.05252 -10.5635,2.11563 -11.79074,2.11563 -0.0689,0 -0.12525,0.14704 -0.12525,0.32676 0,1.01805 10.38629,5.39145 11.14879,4.69447 0.14442,-0.13202 0.31069,-0.93667 0.38085,-1.84316 0.24084,-3.11182 1.7459,-4.71147 5.33451,-5.66976 1.78487,-0.47662 4.93278,-0.47691 6.34849,-5.6e-4 2.04212,0.6871 3.29694,2.05193 4.54274,4.941 0.1648,0.38219 0.44632,0.74634 0.6256,0.80923 0.18672,0.0655 1.01499,-0.19868 1.93895,-0.61842 l 1.61298,-0.73275 0.27225,0.59561 c 0.18845,0.41226 0.48033,0.65656 0.94819,0.79364 1.32828,0.38915 5.66948,0.96129 7.59891,1.00147 l 1.96353,0.0409 0.12506,-1.47691 c 0.0688,-0.81229 0.23526,-1.85074 0.36995,-2.30766 0.72674,-2.46551 2.89991,-4.17518 6.11752,-4.81279 1.44006,-0.28536 4.02373,3.7e-4 5.3635,0.59326 1.78662,0.79058 2.92208,2.3391 3.65834,4.9892 0.19815,0.71322 0.4745,1.3613 0.61412,1.44017 0.27129,0.15326 2.64679,-0.34334 3.39629,-0.71 0.44006,-0.21527 0.78491,-0.5313 0.78491,0.42243 0,0.95294 -0.35529,1.32271 -1.19244,1.77947 -0.4721,0.25759 -1.26734,0.60942 -1.7672,0.78186 -0.76949,0.26546 -0.9985,0.47065 -1.49351,1.33816 -0.68832,1.20628 -1.90443,2.23711 -3.85859,3.27071 -2.39996,1.26941 -2.92851,1.61052 -2.92851,1.89002 0,0.14834 0.71878,0.92584 1.59729,1.72779 0.87851,0.80195 1.99898,1.95687 2.48994,2.56649 1.2023,1.49288 2.29694,3.89027 2.67061,5.84897 0.35699,1.87126 0.35462,1.86656 1.12822,2.23224 0.32432,0.1533 0.72754,0.52242 0.89604,0.82027 0.42886,0.75807 0.39101,2.19267 -0.0749,2.8386 -0.46144,0.63976 -1.91618,1.75653 -3.1469,2.41581 -1.11668,0.59819 -1.26399,1.04715 -0.71548,2.1806 l 0.4213,0.87058 -0.43694,0.92843 c -0.80242,1.70501 -2.69202,2.79437 -5.44549,3.13934 -0.93847,0.11758 -1.95951,0.28741 -2.26899,0.3774 -0.64183,0.18664 -3.56527,2.337 -3.60154,2.64915 -0.0465,0.40022 0.068,0.76981 0.52146,1.68283 1.11307,2.24118 1.15916,2.98489 0.2835,4.57444 -0.91814,1.66665 -2.39335,3.18305 -4.11795,4.23289 -0.83084,0.50577 -1.45772,0.99783 -1.39307,1.09345 0.2724,0.40288 2.14305,1.88604 3.04654,2.41547 1.49063,0.87348 6.07545,5.07849 6.64977,6.09889 0.27146,0.4823 0.58291,0.87692 0.69212,0.87692 0.10921,0 0.19857,0.0831 0.19857,0.18461 0,0.10154 -0.40286,0.18461 -0.89524,0.18461 -0.73479,0 -0.9196,-0.0702 -1.03115,-0.39144 -0.1995,-0.57455 -5.24519,-5.13517 -6.65716,-6.01716 -0.66649,-0.41633 -1.66281,-1.18006 -2.21404,-1.69719 -1.28087,-1.20165 -1.73105,-1.21823 -3.40482,-0.12544 -2.16922,1.41626 -2.19739,1.46637 -2.55187,4.53897 -0.4498,3.89878 -0.38528,3.69226 -1.15359,3.69226 h -0.68425 l 0.1227,-1.24614 c 0.0675,-0.68537 0.19926,-1.45382 0.29283,-1.70767 0.0936,-0.25384 0.21407,-1.1469 0.26776,-1.98459 l 0.0976,-1.52305 h -0.98363 c -0.78707,0 -1.0282,-0.0761 -1.20671,-0.38103 -0.34206,-0.58424 0.0854,-0.91108 1.19294,-0.91223 0.55024,-5.6e-4 1.15263,-0.13345 1.46472,-0.32308 1.30242,-0.79137 1.7335,-1.07697 2.35494,-1.56012 0.36487,-0.28369 0.77386,-0.51587 0.90884,-0.51595 1.04555,-5.5e-4 5.58845,-2.65541 6.29523,-3.67882 0.27375,-0.39638 0.58643,-0.77081 0.69484,-0.83206 0.10841,-0.0612 0.42968,-0.57571 0.71394,-1.14326 0.55385,-1.10583 0.54913,-2.24745 -0.011,-2.67241 -0.15275,-0.11589 -0.27774,-0.32722 -0.27774,-0.46963 0,-0.14241 -0.31809,-0.8363 -0.70688,-1.54199 -0.38878,-0.7057 -0.70688,-1.4464 -0.70688,-1.64602 0,-0.19961 -0.091,-0.41438 -0.20234,-0.47725 -0.23202,-0.13107 -0.58728,0.58686 -0.82229,1.66173 -0.34986,1.60022 -0.77471,2.89098 -1.13945,3.46184 -0.43208,0.67625 -1.51669,1.40982 -2.29624,1.55305 -0.42816,0.0787 -0.56779,0.25931 -0.77689,1.00505 -0.27562,0.98302 -0.71882,1.35062 -1.2814,1.06283 -0.39229,-0.20067 -0.4848,-1.4277 -0.15068,-1.99837 0.10865,-0.18558 0.2961,-1.5301 0.41656,-2.98783 0.12045,-1.45772 0.30303,-3.39809 0.40574,-4.31192 0.4591,-4.08466 0.4596,-3.84305 -0.009,-4.38773 -0.46758,-0.54336 -1.03065,-0.65056 -1.38237,-0.26317 -0.12051,0.13274 -0.3557,0.6935 -0.52262,1.24614 -0.16693,0.55263 -0.57931,1.69619 -0.91642,2.54123 -0.51192,1.28327 -0.61292,1.80901 -0.61292,3.19071 0,1.3986 -0.078,1.79503 -0.50491,2.56506 -0.2777,0.50093 -0.50491,1.15261 -0.50491,1.44816 0,0.75081 -0.43664,1.02118 -1.44875,0.89709 -1.12834,-0.13834 -2.43969,-1.32698 -2.99439,-2.7142 -0.70665,-1.76719 -0.42525,-4.79389 0.53569,-5.76175 0.67758,-0.68246 1.16275,-2.05968 0.88982,-2.52584 -0.35154,-0.60042 -0.89647,-0.46937 -2.02683,0.48742 -0.99732,0.84417 -1.82239,2.12571 -1.82239,2.83061 0,0.18566 -0.22721,0.64361 -0.50492,1.01767 -0.54962,0.74032 -0.68017,2.02932 -0.29847,2.94701 0.11354,0.27298 0.14887,0.77684 0.0785,1.11969 -0.10381,0.50579 -0.22088,0.62337 -0.62068,0.62337 -0.75641,0 -1.07851,-0.92424 -1.0756,-3.08634 0.002,-1.58323 0.0644,-1.90498 0.50492,-2.60935 0.27636,-0.4419 0.50248,-0.92371 0.50248,-1.0707 0,-0.14698 0.14101,-0.51649 0.31335,-0.82114 0.30685,-0.5424 0.23996,-1.27389 -0.11649,-1.27389 -0.47015,0 -3.22635,3.03011 -3.22635,3.54698 0,0.14199 -0.23439,0.54429 -0.52087,0.89401 -1.14259,1.39483 -1.49879,2.29182 -1.49879,3.77428 0,1.12404 0.0986,1.57476 0.50491,2.30766 0.61039,1.10104 0.62495,1.36719 0.10099,1.84613 -0.66443,0.60734 -1.65938,0.49048 -2.40143,-0.28205 -0.7737,-0.80549 -1.43453,-1.9645 -1.44018,-2.52594 -0.008,-0.78523 -0.96985,-2.94958 -1.44873,-3.25964 -0.92759,-0.60058 -1.02699,-0.31941 -0.5787,1.63692 0.12797,0.55846 0.31314,1.46245 0.41148,2.00889 0.0983,0.54643 0.27592,1.08227 0.3946,1.19075 0.11867,0.10848 0.21578,0.41968 0.21578,0.69155 0,0.27187 0.12161,0.58657 0.27026,0.69934 0.14864,0.11276 0.37751,0.53224 0.5086,0.93217 0.25373,0.77413 1.49167,1.77744 2.45259,1.98775 0.2777,0.0608 0.77757,0.23824 1.11081,0.39436 0.33325,0.15612 0.96944,0.34485 1.41376,0.4194 0.44433,0.0745 1.21685,0.27926 1.71671,0.45492 0.49987,0.17566 1.22695,0.37087 1.61573,0.43379 0.5718,0.0925 0.71861,0.2064 0.76824,0.59578 0.0473,0.37116 -0.0452,0.50745 -0.40393,0.59528 -0.88492,0.21665 -1.76527,0.11704 -3.13215,-0.35442 -0.75485,-0.26036 -1.50678,-0.48882 -1.67095,-0.50769 -0.44532,-0.0512 -0.63827,1.16013 -0.78851,4.95025 -0.15394,3.88343 -0.29359,4.3384 -1.33159,4.3384 -0.43625,0 -0.71087,-0.0894 -0.70928,-0.23077 z m -2.5249,-11.95705 c 0.0699,-0.10339 -0.0611,-0.46627 -0.29103,-0.80639 -0.22997,-0.34013 -0.41813,-0.73841 -0.41813,-0.88506 0,-0.21771 -0.83012,-0.30857 -4.5234,-0.49513 -2.48788,-0.12567 -5.32802,-0.30425 -6.31144,-0.39683 -0.98341,-0.0926 -2.8332,-0.25564 -4.11063,-0.36235 -5.38914,-0.45017 -13.57065,-1.61244 -17.05051,-2.42221 -3.9774,-0.92555 -7.07456,-1.96493 -11.07329,-3.7161 -3.69411,-1.61776 -3.72242,-1.08364 -0.0505,0.95165 6.25762,3.46845 13.65444,5.97127 20.19659,6.83382 7.57999,0.99938 23.25232,1.86058 23.63229,1.2986 z m -1.38047,-3.82735 c -0.0574,-0.4823 -0.21239,-1.29229 -0.34437,-1.79998 -0.42177,-1.62239 -0.47467,-3.74251 -0.10621,-4.25654 0.48344,-0.67443 1.68711,-0.6212 2.95664,0.13075 0.9092,0.53852 1.02031,0.68907 1.49247,2.02231 0.28057,0.79225 0.51014,1.61041 0.51014,1.81813 0,0.20771 0.0909,0.37766 0.20196,0.37766 0.11977,0 0.20197,-0.67997 0.20197,-1.67069 0,-1.76722 0.0974,-2.05284 1.21803,-3.57059 0.3369,-0.4563 0.71283,-1.09259 0.83539,-1.41396 0.27605,-0.72384 0.1318,-0.82432 -1.41854,-0.98805 -0.62689,-0.0662 -3.36647,-0.53011 -6.08796,-1.0309 -6.91926,-1.27321 -8.90302,-1.47952 -14.22612,-1.47952 h -4.51106 l -0.96763,-0.59999 c -1.56005,-0.96734 -1.8048,-1.39527 -1.8031,-3.15261 0.001,-1.36196 0.0678,-1.62098 0.68313,-2.6603 1.41618,-2.40113 4.85754,-4.29817 10.0196,-4.04967 2.03602,0.098 3.56661,0.3161 11.91599,1.69788 21.96217,3.63463 29.40726,3.72154 40.09023,0.46799 1.27744,-0.38905 2.77703,-0.90443 3.33244,-1.1453 0.92576,-0.40148 1.01515,-0.49695 1.0737,-1.14682 0.0806,-0.8945 -0.77251,-3.64088 -1.59998,-5.15078 -0.93006,-1.69711 -3.13853,-4.09891 -5.07236,-5.51638 l -0.75145,-0.5508 -1.95538,0.38724 c -1.07546,0.21299 -2.82765,0.42961 -3.89376,0.48138 -1.06611,0.0518 -2.33394,0.13816 -2.81741,0.19197 l -0.87902,0.0978 0.46232,0.44983 c 0.34864,0.33923 0.40516,0.50208 0.22986,0.66232 -0.1753,0.16024 -0.52618,0.0468 -1.42702,-0.46149 -0.65701,-0.37068 -2.01475,-0.96008 -3.01721,-1.30976 -2.44453,-0.85272 -3.47739,-1.35189 -3.47739,-1.6806 0,-0.41449 0.37997,-0.3417 2.65475,0.50855 1.94168,0.72574 2.24979,0.78647 4.30241,0.84806 4.04657,0.12141 9.25135,-0.62034 11.42174,-1.62775 1.60916,-0.74691 3.91761,-2.17651 4.68125,-2.89905 0.4086,-0.38661 0.9542,-1.07492 1.21246,-1.52958 0.3873,-0.68184 0.68169,-0.91621 1.68068,-1.33798 2.03299,-0.85834 2.21868,-0.97171 2.2855,-1.39534 0.078,-0.49487 -0.25133,-0.52144 -1.65117,-0.13324 -0.53941,0.14959 -2.3571,0.51771 -4.03932,0.81804 -7.72633,1.37942 -13.73354,1.48193 -21.13218,0.36059 -2.40967,-0.36521 -2.53133,-0.3676 -2.72654,-0.0536 -0.93265,1.50005 -3.28677,3.02513 -4.67401,3.02802 -0.45888,9.2e-4 -1.45861,0.22551 -2.22163,0.49902 -1.33207,0.47748 -1.56948,0.50022 -5.962,0.57112 -5.26593,0.085 -9.37262,-0.15984 -11.66856,-0.69568 -3.8975,-0.90962 -8.90151,-2.89372 -8.90151,-3.52946 0,-0.45679 0.21862,-0.44263 1.36998,0.0887 1.47598,0.68115 4.22029,1.6855 6.00178,2.19651 2.95317,0.8471 4.98079,1.04157 11.31009,1.08479 l 5.85701,0.04 1.52992,-0.49586 c 0.84147,-0.27273 1.92412,-0.49586 2.40591,-0.49586 1.64084,0 4.12432,-1.87266 4.00264,-3.01816 -0.0795,-0.74801 -0.31715,-0.7307 -2.78834,0.20303 -4.5178,1.70703 -7.34064,2.15399 -13.53172,2.14256 l -4.54423,-0.008 -2.32261,-0.69526 c -2.70717,-0.81038 -5.84468,-2.22687 -8.68223,-3.91978 l -2.01232,-1.20057 -2.37792,-0.225 c -1.30786,-0.12375 -2.57975,-0.34201 -2.82644,-0.48502 -0.93881,-0.54424 -1.08007,-1.8268 -0.28158,-2.55668 0.30572,-0.27945 0.80759,-0.35554 2.87287,-0.43556 3.6433,-0.14116 5.48556,-0.71624 10.01055,-3.12488 2.4403,-1.29898 4.87235,-2.22461 7.28969,-2.77445 1.45907,-0.33187 2.35597,-0.40162 5.19683,-0.40413 3.94929,-0.003 6.58264,0.37648 10.24475,1.47825 1.19135,0.35843 2.25925,0.59907 2.3731,0.53475 0.11384,-0.0643 0.20698,-0.27697 0.20698,-0.47257 0,-0.45704 -2.08435,-1.97086 -3.02948,-2.20025 -1.22877,-0.29822 -4.86181,-0.72106 -7.27078,-0.84622 -5.85126,-0.30401 -12.73694,1.09947 -16.31416,3.32526 -2.11897,1.31845 -3.7369,2.03895 -5.81429,2.58923 -1.90762,0.50531 -2.61652,0.57117 -2.82521,0.26251 -0.22972,-0.33976 0.15093,-0.51199 2.16238,-0.9784 1.98658,-0.46063 3.81337,-1.18992 5.29326,-2.11316 0.45971,-0.28679 1.16982,-0.73124 1.57803,-0.98766 1.00329,-0.63023 4.22075,-1.66627 7.15015,-2.30238 2.31839,-0.50342 2.5919,-0.52224 7.35608,-0.50617 2.72149,0.009 5.40252,0.10562 5.95784,0.21431 0.55532,0.10869 1.04998,0.16076 1.09926,0.11572 0.0493,-0.045 -0.45052,-0.58895 -1.11065,-1.20868 -2.92191,-2.74307 -8.53737,-5.19802 -13.5047,-5.90393 -2.36994,-0.3368 -6.55062,-0.10843 -8.7,0.47523 -2.16805,0.58872 -5.43191,1.97873 -7.14898,3.04458 -1.20941,0.75073 -1.63654,0.82256 -1.63654,0.27522 0,-0.62944 4.81381,-3.02235 7.87667,-3.91544 6.03501,-1.75973 12.97314,-0.88523 19.29116,2.43151 2.33827,1.22751 2.60839,1.27639 2.41504,0.43702 -0.41176,-1.78744 -1.74357,-4.56455 -2.9768,-6.20726 -0.83064,-1.10644 -4.19946,-3.08198 -7.29032,-4.27519 -5.30892,-2.04947 -10.30069,-2.37648 -14.86545,-0.97385 -1.23543,0.37962 -4.29864,1.78947 -5.41923,2.49421 -3.77861,2.37638 -7.43445,6.4274 -10.12873,11.2236 -2.04453,3.63955 -2.80193,5.91303 -3.5136,10.5467 -0.3478,2.26454 -0.50107,2.84508 -0.76323,2.89088 -0.18041,0.0315 -0.3758,-0.0565 -0.43419,-0.1956 -0.0584,-0.13909 0.12203,-1.6847 0.40093,-3.43469 0.27891,-1.74998 0.45263,-3.23157 0.38606,-3.29242 -0.0666,-0.0609 -0.7001,0.11432 -1.40784,0.38927 -2.50211,0.97204 -4.47303,3.10184 -6.85109,7.40336 -2.06403,3.7335 -4.59067,9.10984 -4.59067,9.76832 0,0.17233 -0.2688,0.89072 -0.59734,1.59643 -0.73244,1.57332 -1.90092,5.17163 -2.24017,6.89853 -0.33629,1.71181 -0.14055,8.60191 0.31244,10.99787 0.26725,1.41361 0.49535,2.00451 1.17586,3.04612 0.46436,0.71076 0.94875,1.55068 1.07641,1.8665 0.29804,0.73726 1.15085,1.9768 2.06556,3.00224 1.34555,1.50841 8.65288,4.39046 14.54008,5.73468 4.27614,0.97636 13.34111,2.1361 20.92986,2.67769 2.22163,0.15855 4.40286,0.31577 4.84719,0.34937 0.44432,0.0336 1.79364,0.0751 2.99849,0.0922 l 2.19062,0.031 z m -20.68364,-7.71527 c -2.36289,-0.58168 -3.94429,-1.69406 -4.8559,-3.41569 -0.56593,-1.06879 -0.64719,-1.71196 -0.22648,-1.79258 0.22708,-0.0435 0.4746,0.25728 0.83257,1.01178 0.28019,0.59054 0.76705,1.35358 1.08193,1.69563 0.66522,0.72265 2.52207,1.57752 4.06066,1.86948 0.84864,0.16104 1.07345,0.27829 1.07345,0.55984 0,0.42859 -0.4494,0.44494 -1.96623,0.0715 z m 19.13333,-23.32346 c 0,-0.2075 0.22312,-0.42601 0.55541,-0.54393 0.30547,-0.1084 1.82779,-0.62677 3.38292,-1.15192 3.38321,-1.14248 5.72197,-2.08931 7.97674,-3.22935 1.631,-0.82466 2.24698,-0.88735 1.95813,-0.19928 -0.26815,0.63874 -12.2685,5.47131 -13.5865,5.47131 -0.15769,0 -0.2867,-0.15608 -0.2867,-0.34683 z m 27.53955,29.29376 c 0.11906,-0.17282 0.14717,-0.37757 0.0625,-0.455 -0.21547,-0.19696 -0.82747,0.1896 -0.91036,0.57501 -0.0886,0.41199 0.54298,0.3226 0.8479,-0.12001 z m -7.29681,-1.30611 c 0.47421,-0.98865 0.55557,-1.41919 0.58337,-3.0873 l 0.0323,-1.93844 -0.78534,-0.0517 c -0.67109,-0.0442 -0.83591,0.023 -1.13299,0.46153 -0.19121,0.28227 -0.43236,0.63783 -0.53588,0.79014 -0.10352,0.1523 -0.30349,0.63289 -0.44437,1.06798 -0.21962,0.67823 -0.20677,0.93428 0.0901,1.79525 0.31558,0.91511 1.18031,2.12854 1.50817,2.11635 0.0734,-0.003 0.3815,-0.52195 0.68459,-1.15383 z m 7.78558,-0.0517 c 0.24688,-0.15806 0.44887,-0.45429 0.44887,-0.65828 0,-0.20399 0.0973,-0.53711 0.21626,-0.74026 0.11894,-0.20315 0.30528,-0.79999 0.41409,-1.32631 0.10881,-0.52631 0.24973,-1.18984 0.31317,-1.4745 l 0.11533,-0.51757 -1.18581,0.056 -1.18582,0.056 -0.13912,1.66152 c -0.0765,0.91383 -0.19967,2.01458 -0.27367,2.44612 -0.12654,0.73793 -0.10593,0.7846 0.34664,0.7846 0.26466,0 0.68318,-0.12932 0.93006,-0.28739 z m 6.4769,-3.61139 c 0.47107,-0.31667 0.822,-0.66974 0.77983,-0.78461 -0.0732,-0.19941 -1.58201,-0.30757 -2.11215,-0.15141 -0.46175,0.13602 -0.24855,1.51177 0.23428,1.51177 0.13285,0 0.62697,-0.25909 1.09804,-0.57575 z m 5.44205,-2.11486 c 1.71851,-0.32086 2.92323,-0.87846 3.97491,-1.83977 0.94331,-0.86227 1.10525,-1.72315 0.52832,-2.80861 l -0.44077,-0.8293 -0.94992,0.0952 c -0.52246,0.0524 -2.04054,0.22625 -3.37351,0.38643 -2.89531,0.34791 -7.90049,0.67029 -10.4678,0.6742 -1.9748,0.003 -2.64292,0.17893 -2.20387,0.58025 0.16005,0.14631 0.25189,0.80021 0.25386,1.80766 0.003,1.62746 0.0846,1.90971 0.6028,2.09003 0.16663,0.058 2.60162,0.11197 5.41111,0.11999 3.90511,0.0111 5.47478,-0.0539 6.66487,-0.27607 z m -18.60197,-0.30935 c 0.44981,-0.55112 1.54594,-3.57917 1.38292,-3.82028 -0.0507,-0.0751 -1.66357,-0.19235 -3.58406,-0.26066 -6.69228,-0.23806 -12.61966,-0.98837 -22.93839,-2.90365 -3.46246,-0.64268 -4.21844,-0.723 -6.80443,-0.723 -2.82137,0 -3.6235,-0.15766 -2.90844,-0.57165 0.46778,-0.27083 5.59681,-0.18681 7.14517,0.11705 11.08657,2.17567 18.49572,3.13467 26.45754,3.42449 7.49241,0.27274 13.95846,0.0326 20.6997,-0.76888 3.35843,-0.39927 3.61342,-0.48573 6.11412,-2.07305 1.53168,-0.97224 2.04836,-1.73474 1.91398,-2.82459 -0.11381,-0.92291 -0.61017,-1.54947 -1.22751,-1.54947 -0.22516,0 -1.32441,0.34341 -2.44278,0.76313 -1.11837,0.41972 -3.18381,1.07986 -4.58987,1.46696 -9.8955,2.72436 -18.43461,2.46602 -39.95735,-1.20889 -8.2419,-1.40726 -10.7708,-1.6729 -13.31313,-1.39845 -2.36556,0.25537 -3.07521,0.63782 -4.24655,1.60047 -2.07328,1.7039 -3.40236,4.41932 -2.38377,5.80094 0.91828,1.24555 1.12213,1.2855 7.45821,1.46147 6.06373,0.1684 6.88666,0.26449 14.17972,1.65567 1.65399,0.31551 3.90792,0.6973 5.00873,0.84843 2.18001,0.2993 2.58904,0.22539 3.03785,-0.54897 0.14094,-0.24316 0.60956,-0.69799 1.04139,-1.01073 0.86197,-0.62424 1.88671,-0.7441 3.05639,-0.35748 0.56734,0.18753 0.72658,0.15657 1.42449,-0.27692 0.62561,-0.38858 1.02375,-0.48805 1.95362,-0.48805 1.10087,0 1.19084,0.0344 1.56809,0.6 0.29301,0.43928 0.40041,0.92965 0.40096,1.83074 4.1e-4,0.81131 0.0868,1.26249 0.25322,1.32387 0.47551,0.17539 1.11182,0.12229 1.30018,-0.1085 z m -15.25821,-32.06493 c 0.38753,-0.2907 0.43513,-0.42031 0.25421,-0.6923 -0.45045,-0.6772 -1.69608,-0.43856 -1.69608,0.32494 0,0.29722 0.47221,0.70359 0.83598,0.7194 0.071,0.003 0.34365,-0.15533 0.60589,-0.35204 z m 4.99174,-1.01309 c 2.00287,-0.94674 0.48415,-3.0762 -1.66199,-2.33035 -1.0466,0.36373 -1.09217,1.36213 -0.1007,2.20647 0.53286,0.45378 0.99593,0.48632 1.76269,0.12388 z m 25.75889,-0.31931 c 0.38805,-0.50642 0.0953,-1.07914 -0.55155,-1.07914 -0.8616,0 -1.20645,0.65509 -0.62476,1.1868 0.4357,0.39827 0.81525,0.36353 1.17631,-0.10766 z m 5.30964,-0.74209 c 1.21625,-1.04443 -0.0836,-2.78506 -1.55902,-2.08765 -1.07789,0.5095 -1.18891,1.20331 -0.33182,2.07368 0.51747,0.52549 1.28854,0.53119 1.89084,0.014 z m -36.05379,-1.75026 c 0.51589,-0.42676 0.47467,-1.2676 -0.0795,-1.62243 -0.60624,-0.38814 -0.95306,-0.36191 -1.50728,0.11402 -0.57414,0.49303 -0.59463,0.95923 -0.0635,1.44472 0.49114,0.44894 1.1537,0.47451 1.65032,0.0637 z m 31.9656,-1.41188 c 0.50408,-1.31825 -1.38898,-1.93684 -2.25603,-0.73719 -0.26961,0.37304 -0.25026,0.44694 0.23267,0.88837 0.72724,0.66476 1.7403,0.58907 2.02336,-0.15118 z m -47.5941,0.22627 c 2.38778,-0.24212 5.51488,-0.8479 9.9507,-1.92766 4.38353,-1.06704 10.06087,-2.09399 12.71201,-2.29944 2.36073,-0.18294 7.37771,0.0625 7.79826,0.38159 0.14309,0.10855 0.45459,0.56449 0.69222,1.01319 0.23763,0.4487 0.49211,0.81479 0.56551,0.81353 0.0734,-0.001 0.95142,-0.21025 1.95115,-0.46442 7.54396,-1.91795 14.91958,-2.76418 20.33621,-2.33325 2.82139,0.22446 5.36563,0.7352 6.65302,1.33554 1.38772,0.64714 1.892,0.29043 0.83158,-0.58822 -2.38082,-1.97272 -7.17835,-3.43566 -12.71121,-3.8761 -4.69256,-0.37355 -9.08427,0.0904 -15.41254,1.62835 -3.58219,0.87056 -3.83736,0.90668 -3.83736,0.54327 0,-0.38295 0.34052,-0.52867 2.61011,-1.11697 2.97695,-0.77165 6.98485,-1.5403 9.30588,-1.78472 2.32983,-0.24534 7.7428,-0.13516 10.30026,0.20965 2.72433,0.36732 6.33467,1.39017 7.56817,2.14416 1.08319,0.66211 0.946,-0.25111 -0.18027,-1.20008 -1.02182,-0.86095 -2.33573,-1.27942 -5.87315,-1.87053 -7.61944,-1.27322 -13.87821,-0.89857 -20.49954,1.2271 -2.53768,0.81468 -3.31395,1.15513 -3.75901,1.64858 l -0.42657,0.47295 -1.89604,-0.64434 c -3.70368,-1.25866 -7.00753,-1.78578 -11.2105,-1.78862 -4.67378,-0.003 -7.76945,0.86174 -12.76348,3.56596 -2.22321,1.20385 -4.93585,2.23197 -6.62967,2.51273 -0.66845,0.1108 -2.02612,0.21002 -3.01705,0.22049 -1.9411,0.0205 -2.30659,0.15128 -2.30659,0.82525 0,0.66926 0.71664,0.94166 2.82752,1.07477 1.05528,0.0665 2.23678,0.19238 2.62556,0.27964 0.99725,0.22383 1.56717,0.22347 3.79482,-0.002 z m 31.6502,-8.66761 c 2.15397,-0.74329 5.59778,-1.57632 8.07863,-1.95416 3.8478,-0.58603 10.03913,-0.33531 14.89864,0.60334 0.86289,0.16667 1.63541,0.24088 1.71671,0.1649 0.0813,-0.076 -0.25996,-0.47014 -0.75837,-0.87591 -2.15901,-1.75777 -6.2396,-3.44831 -8.38424,-3.47349 -0.66649,-0.008 -1.57533,-0.13395 -2.01966,-0.28027 -0.44432,-0.14632 -1.3594,-0.26728 -2.03349,-0.26881 -0.6741,-0.002 -1.71927,-0.14817 -2.32261,-0.32586 -1.74386,-0.51358 -9.73224,-0.45012 -13.92181,0.1106 -3.46179,0.46332 -4.64522,0.702 -4.64522,0.93688 0,0.27932 2.53736,2.33493 4.67716,3.78914 1.14878,0.78071 2.17075,1.57991 2.27104,1.776 0.24406,0.47721 0.54646,0.45216 2.44322,-0.20236 z m -6.85168,-6.81854 c 1.21356,-0.19917 3.20619,-0.44833 4.42808,-0.55368 2.81008,-0.2423 9.80793,-0.23541 11.00715,0.0108 0.49986,0.10264 1.68136,0.25388 2.62555,0.3361 0.94419,0.0822 1.97256,0.24385 2.28527,0.35919 0.3127,0.11533 0.83529,0.20969 1.1613,0.20969 0.76613,0 0.76488,-0.24763 -0.0123,-2.44391 -1.75754,-4.9665 -5.17293,-7.95086 -9.97524,-8.71636 -2.2457,-0.35797 -3.42419,-0.35895 -6.03269,-0.005 -2.61298,0.35453 -5.23974,1.13602 -8.32977,2.47821 -2.90265,1.26081 -3.06054,1.3961 -2.49967,2.14191 0.74664,0.99283 2.00029,3.47949 2.41557,4.79136 0.51967,1.64163 0.56114,1.75382 0.64834,1.75382 0.0396,0 1.0649,-0.16296 2.27845,-0.36213 z m 31.55308,75.45344 c -0.0726,-1.86081 -0.16634,-2.39922 -0.5293,-3.03876 -0.28541,-0.5029 -0.44111,-1.111 -0.44111,-1.72281 0,-0.52006 -0.21406,-1.54105 -0.47568,-2.26886 -1.13459,-3.15631 -1.14005,-3.19071 -1.14005,-7.18654 v -3.80005 l 0.9046,-1.26058 c 1.5915,-2.21782 2.00813,-2.67393 2.76758,-3.02984 0.40901,-0.19168 0.8019,-0.43464 0.87306,-0.5399 0.20737,-0.3067 2.46808,-1.29054 2.97223,-1.29348 1.58347,-0.009 4.2002,-1.44026 4.19362,-2.29337 -0.004,-0.51391 -0.48695,-1.74801 -1.18291,-3.02248 -0.31554,-0.57784 -0.62895,-1.26081 -0.69647,-1.51771 -0.0675,-0.25691 -0.53307,-1.04613 -1.03457,-1.75383 -0.78004,-1.10075 -0.91245,-1.42529 -0.91615,-2.24547 -0.004,-0.78408 0.0775,-1.01111 0.44455,-1.24614 0.65536,-0.41959 2.28404,-0.37095 3.1048,0.0927 0.60473,0.34164 2.10138,2.26757 2.10138,2.70413 0,0.0959 0.22015,0.36349 0.48923,0.59455 0.50407,0.43287 1.93436,2.93297 1.93436,3.38121 0,0.36017 1.26433,1.4322 1.68911,1.4322 0.62358,0 1.12498,-0.35986 1.54168,-1.1065 0.60496,-1.08392 0.52569,-2.18563 -0.26985,-3.75097 -0.84554,-1.6637 -1.14706,-2.42232 -1.33457,-3.35781 -0.0814,-0.40614 -0.29889,-1.06013 -0.48327,-1.45329 -0.39146,-0.83473 -0.43933,-2.46012 -0.0942,-3.1995 0.40644,-0.87077 0.78796,-1.16251 1.52027,-1.16251 0.95394,0 1.39604,-0.26123 1.53768,-0.90856 0.17178,-0.78508 1.00088,-1.12219 2.76001,-1.12219 1.79439,0 2.20378,0.19257 3.89655,1.83281 0.74108,0.71809 1.43379,1.30561 1.53935,1.30561 0.10556,0 0.24524,-0.15354 0.3104,-0.3412 0.16595,-0.47795 0.9679,-0.76647 2.13037,-0.76647 1.36279,0 1.82103,0.23997 2.52457,1.32206 0.33325,0.51255 1.03544,1.3908 1.56043,1.95167 1.5592,1.66576 2.2209,4.01626 1.46906,5.21846 -0.15875,0.25384 -0.29186,0.65361 -0.29579,0.88838 -0.007,0.3901 -0.36643,1.64722 -0.8027,2.80388 -0.27898,0.73962 -1.50844,3.3233 -2.12716,4.47014 -0.37931,0.70309 -1.11559,1.53413 -2.20809,2.49228 -1.7011,1.4919 -2.29841,1.86236 -4.14696,2.572 -0.6959,0.26714 -1.54865,0.8297 -2.32805,1.5358 -0.67644,0.61283 -1.29158,1.11423 -1.36697,1.11423 -0.15682,0 -1.13392,0.59594 -2.19451,1.33845 -0.39884,0.27922 -0.7819,0.50768 -0.85124,0.50768 -0.28663,0 -2.60311,1.57082 -2.79184,1.89316 -0.2395,0.40906 -0.10445,4.83725 0.19845,6.50673 0.28622,1.5776 0.60557,2.85068 0.77879,3.1046 0.082,0.12014 0.21355,0.63381 0.29244,1.1415 0.26183,1.68502 0.50855,2.44964 1.25237,3.88133 0.40532,0.78016 0.73694,1.45138 0.73694,1.49161 0,0.0402 -0.34818,0.0731 -0.77374,0.0731 -0.83653,0 -0.79979,0.04 -1.61004,-1.75382 -0.43748,-0.96854 -0.61548,-1.58887 -0.7664,-2.67084 -0.05,-0.35871 -0.18462,-0.94296 -0.29908,-1.29834 -0.76901,-2.38775 -0.83923,-2.85166 -0.964,-6.36862 l -0.13098,-3.69174 -1.43618,0.061 c -1.16537,0.0495 -1.45933,0.006 -1.5589,-0.23129 -0.23385,-0.55706 0.10589,-0.8242 1.38823,-1.09157 1.99883,-0.41676 6.76564,-3.09178 8.97861,-5.03858 0.62588,-0.5506 1.68391,-1.22321 2.42359,-1.54072 2.11565,-0.90815 2.63865,-1.22887 3.99465,-2.44964 1.245,-1.12083 2.46826,-2.56562 2.46826,-2.91526 0,-0.0942 0.21723,-0.60925 0.48274,-1.14457 1.27621,-2.57309 2.03991,-4.51501 2.25054,-5.72257 0.0403,-0.23095 0.13319,-0.75809 0.20646,-1.17143 0.15986,-0.90177 -0.50714,-2.27051 -1.49879,-3.07567 -0.34152,-0.27729 -0.82817,-0.84932 -1.08144,-1.27117 -0.79846,-1.32994 -0.92223,-1.50141 -1.1996,-1.66212 -0.44623,-0.25852 -0.76769,-0.18654 -1.28706,0.2882 -0.39295,0.35919 -0.46964,0.5747 -0.37771,1.06152 0.18402,0.97452 0.53783,1.69448 0.99732,2.02939 0.63233,0.46089 1.50754,2.12221 1.50754,2.86161 0,0.36661 -0.17475,0.84922 -0.40393,1.11554 -0.32987,0.38333 -0.40393,0.74893 -0.40393,1.99396 0,1.18486 -0.0675,1.54824 -0.30295,1.63082 -0.62671,0.21983 -0.86228,-0.0784 -0.97355,-1.23238 -0.0606,-0.62812 -0.19814,-1.47434 -0.30572,-1.88049 -0.57782,-2.18149 -1.0721,-3.94082 -1.24847,-4.44382 -0.10934,-0.31182 -0.1988,-0.67253 -0.1988,-0.80157 0,-0.44909 -3.65784,-4.16765 -4.48371,-4.55815 -0.94855,-0.4485 -2.18395,-0.26016 -2.44997,0.37351 -0.0629,0.14982 0.12056,0.67135 0.40768,1.15896 0.28712,0.4876 0.74165,1.28116 1.01007,1.76346 0.26842,0.4823 0.60879,0.87691 0.75639,0.87691 0.51222,0 1.32612,1.22298 1.32612,1.99266 0,0.47062 0.17875,0.96578 0.50942,1.4112 1.14251,1.53892 1.51024,2.44066 1.51024,3.7034 0,1.40845 -0.23949,1.61304 -1.33114,1.1372 -0.51506,-0.22452 -0.68852,-0.41763 -0.68852,-0.76654 0,-0.25653 -0.32819,-0.89321 -0.72931,-1.41485 -0.68991,-0.89721 -0.87872,-1.31031 -1.50548,-3.29387 -0.30974,-0.98026 -1.70297,-3.61309 -2.00107,-3.7815 -0.11407,-0.0644 -0.20739,-0.26393 -0.20739,-0.44332 0,-0.17938 -0.22384,-0.51836 -0.49741,-0.75328 -0.46491,-0.39924 -0.52885,-0.4083 -0.97884,-0.13879 -0.74607,0.44684 -1.07626,1.33805 -0.75858,2.04745 0.14216,0.31744 0.32344,0.90947 0.40285,1.31561 0.0794,0.40615 0.29688,1.00433 0.48326,1.32928 0.18639,0.32495 0.33889,0.79247 0.33889,1.03892 0,0.24645 0.13633,0.55151 0.30295,0.67792 0.16662,0.1264 0.30295,0.34757 0.30295,0.49149 0,0.14392 0.18177,0.58735 0.40393,0.98541 0.6169,1.10534 0.57323,3.58375 -0.084,4.76939 -0.58993,1.06415 -1.14065,1.32284 -2.81617,1.32284 -1.13273,0 -1.32436,-0.0562 -1.82657,-0.53532 -0.53115,-0.50677 -1.51861,-2.20889 -1.54756,-2.66759 -0.007,-0.11684 -0.32413,-0.58627 -0.7039,-1.04319 -0.37976,-0.45692 -0.96114,-1.28768 -1.29195,-1.84613 -0.71572,-1.20825 -1.14432,-1.69678 -1.84148,-2.09897 -0.44031,-0.25402 -0.57436,-0.26153 -0.891,-0.0499 -0.35764,0.23904 -0.35212,0.27446 0.1364,0.87592 0.83551,1.02866 2.27261,3.78708 3.30815,6.3498 0.73639,1.82238 0.76627,2.00884 0.42,2.62091 -0.37744,0.66718 -3.26585,2.08672 -4.24595,2.08672 -0.35666,0 -1.005,0.16615 -1.44076,0.36922 -0.43576,0.20308 -0.89355,0.36923 -1.01733,0.36923 -0.12377,0 -0.44537,0.21577 -0.71466,0.4795 -0.2693,0.26372 -0.80773,0.63615 -1.19651,0.82762 -0.76181,0.37517 -1.33486,1.01085 -2.73268,3.03128 l -0.89406,1.29229 -0.004,2.56035 c -0.003,2.02146 0.0776,2.79858 0.38484,3.69226 0.21404,0.62255 0.62302,1.80659 0.90885,2.63119 0.28583,0.82461 0.51968,1.88928 0.51968,2.36595 0,0.47667 0.10764,1.04813 0.23919,1.26992 0.40788,0.68764 0.61852,1.97506 0.70783,4.32626 l 0.0859,2.26151 h -0.59306 -0.59306 z m -31.33262,-5.61531 c -0.074,-0.0677 -0.13464,-0.31533 -0.13464,-0.55032 0,-0.29598 0.14763,-0.46112 0.48051,-0.53748 1.17256,-0.26901 2.17224,0.21412 1.88058,0.90887 -0.0933,0.22233 -0.38599,0.30201 -1.1093,0.30201 -0.54038,0 -1.04309,-0.0554 -1.11715,-0.12308 z"
         id="path2013"
         inkscape:connector-curvature="0"
         sodipodi:nodetypes="cccsccscscsscscccscssccsccsscsccscsccccccccccccccccsccccccsscccccsscccccccccsccsccccsscscccsscccccccscccssscccccscccccscccccccccscscccccccccccccscsscsccscccsccscsscscscccsccscccccccccscssccccssccsccscccccccsssccccscccccssccccccccccsccsccsccccccscccssscssccscscccscsccscccccscsssccccccscccccssscccccsccccccsscccccccsccccccccccsccsccccsscccccccccccccccccscccccccsscccccsccccccccccccccccccsccscccsscscsccccccccsccccccscccccccscccccccccccccccccccccsccscsscscccscssscccsccscccccsccccccccsccccccccscsccccsccccscsccccccccccccscsscccccssscscscscccccccscscccccsssccccccssscssccccccccscsccccscccssscscscscscscccscsccscccccccccscsccsccccscccccccsccsc" />
    </g>
  </g>
  <g
     id="g1696"
     inkscape:groupmode="layer"
     inkscape:label="newlayer" />
</svg>
