<?xml version="1.0" encoding="UTF-8" standalone="no"?>
<!-- Created with Inkscape (http://www.inkscape.org/) -->

<svg
   xmlns:dc="http://purl.org/dc/elements/1.1/"
   xmlns:cc="http://creativecommons.org/ns#"
   xmlns:rdf="http://www.w3.org/1999/02/22-rdf-syntax-ns#"
   xmlns:svg="http://www.w3.org/2000/svg"
   xmlns="http://www.w3.org/2000/svg"
   xmlns:sodipodi="http://sodipodi.sourceforge.net/DTD/sodipodi-0.dtd"
   xmlns:inkscape="http://www.inkscape.org/namespaces/inkscape"
   width="210mm"
   height="297mm"
   viewBox="0 0 210 297"
   version="1.1"
   id="svg8"
   inkscape:version="0.92.4 (5da689c313, 2019-01-14)"
   sodipodi:docname="Send logo, hlynur.svg">
  <defs
     id="defs2" />
  <sodipodi:namedview
     id="base"
     pagecolor="#ffffff"
     bordercolor="#666666"
     borderopacity="1.0"
     inkscape:pageopacity="0.0"
     inkscape:pageshadow="2"
     inkscape:zoom="1.4"
     inkscape:cx="-498.41831"
     inkscape:cy="735.24118"
     inkscape:document-units="mm"
     inkscape:current-layer="layer1"
     showgrid="false"
     showguides="true"
     inkscape:guide-bbox="true"
     inkscape:object-nodes="false"
     inkscape:window-width="1920"
     inkscape:window-height="1017"
     inkscape:window-x="-8"
     inkscape:window-y="-8"
     inkscape:window-maximized="1" />
  <metadata
     id="metadata5">
    <rdf:RDF>
      <cc:Work
         rdf:about="">
        <dc:format>image/svg+xml</dc:format>
        <dc:type
           rdf:resource="http://purl.org/dc/dcmitype/StillImage" />
        <dc:title></dc:title>
      </cc:Work>
    </rdf:RDF>
  </metadata>
  <g
     inkscape:label="Layer 1"
     inkscape:groupmode="layer"
     id="layer1">
    <path
       style="fill:#333333;stroke:#000000;stroke-width:0.26458332px;stroke-linecap:butt;stroke-linejoin:miter;stroke-opacity:1;opacity:1"
       d="m -71.734417,128.58979 -23.783703,13.73153 0.268121,-27.88382 z"
       id="path1045"
       inkscape:connector-curvature="0" />
    <path
       style="fill:#333333;stroke:none;stroke-width:0.26458332px;stroke-linecap:butt;stroke-linejoin:miter;stroke-opacity:1;opacity:1"
       d="m -192.86759,98.862908 22.12387,-12.773218 5.33722,19.91879 z"
       id="path1035"
       inkscape:connector-curvature="0" />
    <path
       sodipodi:nodetypes="cccsccc"
       inkscape:connector-curvature="0"
       id="path865"
       d="m -130.46707,42.97666 -47.36999,35.715694 V 108.4083 c 1.6e-4,28.42583 21.20843,51.46903 47.36999,51.46887 26.16133,-1.9e-4 47.369236,-23.04329 47.369406,-51.46887 V 78.692354 Z"
       style="fill:#ffff00;stroke:#ff0000;stroke-width:4;stroke-miterlimit:4;stroke-dasharray:none;opacity:1" />
    <path
       style="color:#000000;font-style:normal;font-variant:normal;font-weight:normal;font-stretch:normal;font-size:medium;line-height:normal;font-family:sans-serif;font-variant-ligatures:normal;font-variant-position:normal;font-variant-caps:normal;font-variant-numeric:normal;font-variant-alternates:normal;font-feature-settings:normal;text-indent:0;text-align:start;text-decoration:none;text-decoration-line:none;text-decoration-style:solid;text-decoration-color:#000000;letter-spacing:normal;word-spacing:normal;text-transform:none;writing-mode:lr-tb;direction:ltr;text-orientation:mixed;dominant-baseline:auto;baseline-shift:baseline;text-anchor:start;white-space:normal;shape-padding:0;clip-rule:nonzero;display:inline;overflow:visible;visibility:visible;opacity:1;isolation:auto;mix-blend-mode:normal;color-interpolation:sRGB;color-interpolation-filters:linearRGB;solid-color:#000000;solid-opacity:1;vector-effect:none;fill:#ff0000;fill-opacity:1;fill-rule:nonzero;stroke:none;stroke-width:6;stroke-linecap:butt;stroke-linejoin:miter;stroke-miterlimit:4;stroke-dasharray:none;stroke-dashoffset:0;stroke-opacity:1;color-rendering:auto;image-rendering:auto;shape-rendering:auto;text-rendering:auto;enable-background:accumulate"
       d="m -192.86759,98.86291 v 2.76602 47.87194 L -71.734417,128.58979 V 77.951829 Z"
       id="path1032"
       inkscape:connector-curvature="0" />
    <rect
       style="opacity:1;fill:#333333;stroke:none;stroke-width:2.01473665;stroke-miterlimit:4;stroke-dasharray:none"
       id="rect1024"
       width="116.83398"
       height="45.104038"
       x="-192.67503"
       y="68.335487"
       transform="matrix(0.98542461,-0.17011273,0,1,0,0)" />
    <path
       style="fill:#ffff00;stroke:none;stroke-width:4;stroke-miterlimit:4;stroke-dasharray:none;opacity:1"
       d="m -112.72081,96.170683 -30.66638,15.215547 h 7.59497 l -15.33332,15.21568 30.66649,-15.21568 h -7.59498 z"
       id="path880"
       inkscape:connector-curvature="0" />
    <path
       style="opacity:1;fill:#ff0000;stroke:none;stroke-width:4;stroke-miterlimit:4;stroke-dasharray:none"
       d="m -102.8779,88.371212 -35.13809,17.434248 25.29501,-9.634777 -15.33313,15.215487 h 1.98331 z m -34.89764,23.014958 -23.1929,23.01537 35.13767,-17.43425 -25.2946,9.63477 15.33314,-15.21589 z"
       id="path882"
       inkscape:connector-curvature="0" />
    <path
       sodipodi:type="star"
       style="opacity:1;fill:#333333;stroke:#ff0000;stroke-width:0.99999994;stroke-miterlimit:4;stroke-dasharray:none"
       id="path902"
       sodipodi:sides="5"
       sodipodi:cx="-130.0297"
       sodipodi:cy="65.659584"
       sodipodi:r1="7.923821"
       sodipodi:r2="3.9619105"
       sodipodi:arg1="0.78539816"
       sodipodi:arg2="1.4137167"
       inkscape:flatsided="false"
       inkscape:rounded="0"
       inkscape:randomized="0"
       d="m -124.42671,71.262572 -4.9832,-1.689855 -4.21712,3.147043 0.0673,-5.261506 -4.29618,-3.038229 5.02477,-1.561935 1.56194,-5.024772 3.03823,4.296178 5.2615,-0.06725 -3.14704,4.217118 z"
       inkscape:transform-center-x="0.38304531"
       inkscape:transform-center-y="-0.38304492" />
    <g
       aria-label="Hlynur Smári"
       style="font-style:normal;font-weight:normal;font-size:7.53178644px;line-height:1.25;font-family:sans-serif;letter-spacing:0px;word-spacing:0px;fill:#000000;fill-opacity:1;stroke:none;stroke-width:0.26458332;opacity:1"
       id="text994"
       transform="translate(1.722208)">
      <path
         d="m -151.47494,150.78402 -0.62715,-0.37001 1.3623,-2.30908 -2.35343,-1.38846 -1.3623,2.30908 -0.62716,-0.37001 2.78253,-4.71635 0.62716,0.37001 -1.09133,1.8498 2.35342,1.38846 1.09134,-1.8498 0.62715,0.37001 z"
         style="word-spacing:0px;fill:#000000;stroke-width:0.26458332"
         id="path1001"
         inkscape:connector-curvature="0" />
      <path
         d="m -149.54943,151.67528 -0.62552,-0.29455 2.43785,-5.17713 0.62551,0.29455 z"
         style="word-spacing:0px;fill:#000000;stroke-width:0.26458332"
         id="path1003"
         inkscape:connector-curvature="0" />
      <path
         d="m -143.52659,149.66727 -4.22916,4.41394 -0.69157,-0.26106 1.3209,-1.33319 -0.15048,-4.23538 0.7019,0.26495 0.10474,3.29435 2.26587,-2.39948 z"
         style="word-spacing:0px;fill:#000000;stroke-width:0.26458332"
         id="path1005"
         inkscape:connector-curvature="0" />
      <path
         d="m -140.77701,154.61333 -0.67008,-0.17034 0.57626,-2.26687 q 0.0698,-0.27445 0.0984,-0.52141 0.0295,-0.25053 -0.0216,-0.40771 -0.0511,-0.17236 -0.20045,-0.28623 -0.14849,-0.11743 -0.41581,-0.18539 -0.27445,-0.0698 -0.60828,-0.0104 -0.33383,0.0593 -0.66173,0.19986 l -0.75566,2.9726 -0.67009,-0.17035 1.01208,-3.98128 0.67008,0.17034 -0.11235,0.44197 q 0.3798,-0.18046 0.75199,-0.24142 0.37219,-0.061 0.72505,0.0287 0.64513,0.164 0.88498,0.63858 0.23984,0.47458 0.0541,1.20526 z"
         style="word-spacing:0px;fill:#000000;stroke-width:0.26458332"
         id="path1007"
         inkscape:connector-curvature="0" />
      <path
         d="m -136.09127,155.31785 -0.68525,-0.0919 0.0606,-0.45198 q -0.38295,0.22691 -0.71962,0.33016 -0.33668,0.10324 -0.7194,0.0519 -0.64151,-0.0861 -0.94639,-0.52402 -0.30438,-0.44159 -0.20265,-1.19974 l 0.35459,-2.6426 0.68525,0.0919 -0.31106,2.3182 q -0.0416,0.30982 -0.0422,0.53607 -1.8e-4,0.22261 0.0736,0.39206 0.0769,0.17359 0.22384,0.26752 0.14695,0.0939 0.44584,0.13403 0.26608,0.0357 0.59813,-0.0607 0.3357,-0.096 0.63793,-0.27433 l 0.4079,-3.0399 0.68525,0.0919 z"
         style="word-spacing:0px;fill:#000000;stroke-width:0.26458332"
         id="path1009"
         inkscape:connector-curvature="0" />
      <path
         d="m -132.04531,152.13943 -0.0368,-0.001 q -0.153,-0.0425 -0.29946,-0.0626 -0.14265,-0.0237 -0.34111,-0.031 -0.31973,-0.0118 -0.62272,0.1205 -0.30284,0.12865 -0.58677,0.34264 l -0.10774,2.91437 -0.69092,-0.0255 0.15176,-4.10511 0.69092,0.0256 -0.0224,0.60639 q 0.42384,-0.31554 0.74125,-0.43997 0.32122,-0.12797 0.64831,-0.11588 0.18008,0.007 0.26052,0.0207 0.0806,0.0103 0.24134,0.042 z"
         style="word-spacing:0px;fill:#000000;stroke-width:0.26458332"
         id="path1011"
         inkscape:connector-curvature="0" />
      <path
         d="m -125.05768,153.30064 q 0.0406,0.31738 -0.0693,0.64657 -0.10628,0.32873 -0.34506,0.57801 -0.26198,0.27078 -0.63552,0.45202 -0.36989,0.18076 -0.91708,0.25073 -0.58731,0.0751 -1.07189,0.0258 -0.48093,-0.0497 -0.99362,-0.20293 l -0.11567,-0.90468 0.0511,-0.007 q 0.45606,0.2902 1.01974,0.40721 0.56368,0.11701 1.03791,0.0564 0.67122,-0.0858 1.01113,-0.38511 0.34355,-0.29975 0.28991,-0.71926 -0.0462,-0.36114 -0.24685,-0.50974 -0.19702,-0.14907 -0.57029,-0.19774 -0.28292,-0.038 -0.61001,-0.0444 -0.32343,-0.007 -0.69026,-0.0341 -0.74188,-0.0609 -1.13919,-0.38453 -0.39413,-0.32778 -0.47015,-0.92239 -0.0872,-0.68216 0.43364,-1.18996 0.52041,-0.51145 1.40685,-0.62479 0.57273,-0.0732 1.0646,-0.0249 0.49187,0.0483 0.88084,0.16173 l 0.10914,0.85362 -0.0511,0.007 q -0.34366,-0.22301 -0.87264,-0.32963 -0.5258,-0.11073 -1.05476,-0.0431 -0.58002,0.0742 -0.90308,0.36017 -0.31942,0.28554 -0.27091,0.66492 0.0434,0.33926 0.2432,0.51021 0.19982,0.17096 0.65428,0.21666 0.24,0.0212 0.67978,0.0391 0.43979,0.0179 0.74871,0.0563 0.62608,0.0831 0.97402,0.36857 0.34794,0.28549 0.42257,0.86915 z"
         style="word-spacing:0px;fill:#000000;stroke-width:0.26458332"
         id="path1013"
         inkscape:connector-curvature="0" />
      <path
         d="m -117.98023,153.05011 -0.6651,0.18886 -0.63891,-2.25002 q -0.0723,-0.25472 -0.16439,-0.48472 -0.0885,-0.231 -0.20301,-0.35142 -0.12457,-0.12902 -0.29879,-0.16365 -0.17423,-0.0346 -0.46079,0.0467 -0.27948,0.0794 -0.51878,0.30024 -0.24031,0.21733 -0.45851,0.51249 0.0337,0.0784 0.0719,0.18602 0.0372,0.10413 0.0674,0.21026 l 0.71827,2.5295 -0.6651,0.18886 -0.63891,-2.25002 q -0.0743,-0.26179 -0.1654,-0.48826 -0.0885,-0.231 -0.20301,-0.35141 -0.12456,-0.12902 -0.29778,-0.16012 -0.17423,-0.0346 -0.46079,0.0467 -0.27241,0.0773 -0.51018,0.29014 -0.23423,0.21179 -0.44737,0.49787 l 0.8378,2.9505 -0.6651,0.18885 -1.1221,-3.95169 0.66511,-0.18885 0.12456,0.43868 q 0.23799,-0.34666 0.50459,-0.5791 0.27014,-0.23345 0.62038,-0.33291 0.4033,-0.11452 0.73101,-0.0241 0.33124,0.0894 0.5546,0.35098 0.30686,-0.45415 0.59722,-0.69717 0.28936,-0.24655 0.6679,-0.35404 0.65095,-0.18484 1.07124,0.12399 0.42284,0.3043 0.62375,1.01185 z"
         style="word-spacing:0px;fill:#000000;stroke-width:0.26458332"
         id="path1015"
         inkscape:connector-curvature="0" />
      <path
         d="m -113.84105,151.19974 -0.62818,0.27989 -0.17811,-0.39975 q -0.0585,0.0945 -0.15659,0.26302 -0.0962,0.16365 -0.20361,0.28398 -0.12346,0.14762 -0.30593,0.28931 -0.18096,0.14505 -0.45642,0.26778 -0.50725,0.22602 -1.00965,0.0473 -0.5024,-0.17877 -0.7344,-0.69945 -0.19009,-0.42663 -0.12544,-0.76948 0.0665,-0.3477 0.33845,-0.65004 0.27529,-0.30384 0.73172,-0.57162 0.45642,-0.26779 0.99537,-0.54013 l -0.0434,-0.0974 q -0.0958,-0.215 -0.23592,-0.32166 -0.13677,-0.10816 -0.31378,-0.12592 -0.1688,-0.0174 -0.36889,0.0396 -0.20009,0.0569 -0.40501,0.14824 -0.24858,0.11076 -0.52434,0.31416 -0.27725,0.20003 -0.54772,0.46951 l -0.0336,0.015 -0.28589,-0.64162 q 0.16231,-0.13271 0.48473,-0.34884 0.32242,-0.21613 0.66171,-0.3673 0.39639,-0.17662 0.71858,-0.23965 0.32406,-0.0679 0.6094,-0.006 0.28048,0.0602 0.5006,0.25606 0.22012,0.19583 0.38177,0.55863 z m -1.03979,-0.64391 -0.46549,-1.04473 q -0.28142,0.14552 -0.65948,0.35424 -0.37471,0.20721 -0.5747,0.37282 -0.23768,0.1985 -0.3323,0.43794 -0.0961,0.23609 0.0311,0.52162 0.14369,0.32249 0.41187,0.40029 0.26668,0.0744 0.66643,-0.10369 0.33257,-0.14818 0.55115,-0.39857 0.21709,-0.25374 0.37141,-0.53992 z m -1.86854,-4.8081 -0.35729,1.66498 -0.50053,0.22302 0.0415,-1.52429 z"
         style="word-spacing:0px;fill:#000000;stroke-width:0.26458332"
         id="path1017"
         inkscape:connector-curvature="0" />
      <path
         d="m -112.06983,146.38939 -0.032,0.018 q -0.15264,0.0437 -0.28804,0.10308 -0.134,0.0543 -0.30705,0.15177 -0.27881,0.15697 -0.46802,0.42809 -0.19101,0.26792 -0.3213,0.59872 l 1.43075,2.54128 -0.60247,0.3392 -2.01533,-3.57958 0.60248,-0.3392 0.2977,0.52877 q 0.19653,-0.4905 0.40217,-0.76243 0.20704,-0.27694 0.49225,-0.43751 0.15703,-0.0884 0.23295,-0.11849 0.0741,-0.0333 0.22774,-0.0902 z"
         style="word-spacing:0px;fill:#000000;stroke-width:0.26458332"
         id="path1019"
         inkscape:connector-curvature="0" />
      <path
         d="m -111.87528,144.51097 -0.65347,0.42527 -0.39116,-0.60106 0.65346,-0.42527 z m 2.57882,4.04347 -0.57948,0.37713 -2.2407,-3.443 0.57949,-0.37713 z"
         style="word-spacing:0px;fill:#000000;stroke-width:0.26458332"
         id="path1021"
         inkscape:connector-curvature="0" />
    </g>
  </g>
</svg>
